<svg xmlns="http://www.w3.org/2000/svg" width="1000" height="430" viewBox="0 0 1000 430"><rect width="100%" height="100%" fill="#ffffff" /><text x="20.0" y="26.0" font-size="16" text-anchor="start" fill="#273142">One-hour subperiod total PnL</text><rect x="790" y="16" width="10" height="10" fill="#718096" /><text x="805.0" y="26.0" font-size="10" text-anchor="start" fill="#273142">static</text><rect x="890" y="16" width="10" height="10" fill="#805ad5" /><text x="905.0" y="26.0" font-size="10" text-anchor="start" fill="#273142">RV-only</text><rect x="990" y="16" width="10" height="10" fill="#2b6cb0" /><text x="1005.0" y="26.0" font-size="10" text-anchor="start" fill="#273142">IV-aware</text><line x1="65" y1="385" x2="975" y2="385" stroke="#777" /><line x1="65" y1="48" x2="65" y2="385" stroke="#777" /><text x="57.0" y="53.0" font-size="10" text-anchor="end" fill="#273142">2.65</text><text x="57.0" y="385.0" font-size="10" text-anchor="end" fill="#273142">-9.0436</text><line x1="65" y1="124.4" x2="975" y2="124.4" stroke="#999" stroke-dasharray="4 4" /><polyline points="65.0,274.9 247.0,97.8 429.0,137.8 611.0,225.6 793.0,203.2 975.0,105.5" fill="none" stroke="#718096" stroke-width="1.7" /><polyline points="65.0,385.0 247.0,220.3 429.0,48.0 611.0,237.8 793.0,280.9 975.0,102.2" fill="none" stroke="#805ad5" stroke-width="1.7" /><polyline points="65.0,353.0 247.0,172.0 429.0,148.6 611.0,195.0 793.0,281.7 975.0,138.9" fill="none" stroke="#2b6cb0" stroke-width="1.7" /></svg>